<?xml version="1.0" encoding="UTF-8"?>
<svg width="15px" height="16px" viewBox="0 0 15 16" version="1.1" xmlns="http://www.w3.org/2000/svg" xmlns:xlink="http://www.w3.org/1999/xlink">
    <!-- Generator: Sketch 53.2 (72643) - https://sketchapp.com -->
    <title>删除</title>
    <desc>Created with Sketch.</desc>
    <g id="V3.0" stroke="none" stroke-width="1" fill="none" fill-rule="evenodd">
        <g id="9.1设置-1-copy" transform="translate(-286.000000, -81.000000)" stroke="#636ACC" stroke-width="1.2">
            <g id="分组-12" transform="translate(276.000000, 71.000000)">
                <g id="删除" transform="translate(10.388889, 10.388889)">
                    <polyline id="路径" stroke-linecap="round" stroke-linejoin="round" points="1.88888889 3.77777778 2.89579774 14.1666667 11.1136016 14.1666667 12.2777778 3.77777778"></polyline>
                    <rect id="矩形" x="4.37777778" y="0.6" width="5.41111111" height="1"></rect>
                    <path d="M3.66944444,8.86388889 L7.19166667,8.86388889 L7.19166667,9.39722222 L7.725,8.86388889 L7.79166667,8.86388889 L7.75833333,8.83055556 L7.79166667,8.79722222 L7.725,8.79722222 L7.19166667,8.26388889 L7.19166667,8.79722222 L3.66944444,8.79722222 L3.66944444,8.26388889 L3.13611111,8.79722222 L3.06944444,8.79722222 L3.10277778,8.83055556 L3.06944444,8.86388889 L3.13611111,8.86388889 L3.66944444,9.39722222 L3.66944444,8.86388889 Z" id="矩形-copy-2" transform="translate(5.430556, 8.830556) rotate(90.000000) translate(-5.430556, -8.830556) "></path>
                    <path d="M6.975,8.86388889 L10.4972222,8.86388889 L10.4972222,9.39722222 L11.0305556,8.86388889 L11.0972222,8.86388889 L11.0638889,8.83055556 L11.0972222,8.79722222 L11.0305556,8.79722222 L10.4972222,8.26388889 L10.4972222,8.79722222 L6.975,8.79722222 L6.975,8.26388889 L6.44166667,8.79722222 L6.375,8.79722222 L6.40833333,8.83055556 L6.375,8.86388889 L6.44166667,8.86388889 L6.975,9.39722222 L6.975,8.86388889 Z" id="矩形-copy-3" transform="translate(8.736111, 8.830556) rotate(90.000000) translate(-8.736111, -8.830556) "></path>
                    <rect id="矩形-copy" x="0.6" y="3.43333333" width="12.9666667" height="1"></rect>
                </g>
            </g>
        </g>
    </g>
</svg>