<svg width="16" height="16" viewBox="0 0 16 16" fill="none" xmlns="http://www.w3.org/2000/svg">
<g clip-path="url(#clip0_1824_9819)">
<path d="M0.318646 9.78313C0.510663 9.78313 0.700759 9.69737 0.82621 9.53351L1.10463 9.17188C1.52131 11.6438 3.25266 13.7585 5.71047 14.6117C6.46701 14.8741 7.2434 15.0002 8.00954 15.0002C10.3035 15.0002 12.511 13.8686 13.8328 11.8761C14.028 11.5817 13.9473 11.1842 13.6529 10.989C13.3572 10.7925 12.9616 10.8744 12.7652 11.1688C11.3257 13.3412 8.59711 14.2603 6.13098 13.4026C4.08473 12.6922 2.65741 10.9109 2.35274 8.84225L2.90063 9.26405C3.18161 9.47847 3.58293 9.42726 3.79798 9.14692C4.01368 8.86658 3.96184 8.46526 3.68149 8.24956C3.68149 8.24956 2.16776 7.08402 2.16392 7.08146C1.84582 6.83632 1.3933 6.69871 1.10527 7.07442L-0.187637 8.75329C-0.403335 9.03363 -0.351491 9.43494 -0.0711469 9.65064C0.0447029 9.73961 0.182315 9.78313 0.318646 9.78313Z" fill="white"/>
<path d="M2.34761 5.01157C2.6414 5.20679 3.03887 5.12614 3.23537 4.83171C4.67485 2.66001 7.40596 1.74089 9.86952 2.59792C11.9158 3.30838 13.3431 5.08966 13.6478 7.15832L13.0999 6.73652C12.8189 6.52146 12.4176 6.57266 12.2025 6.85365C11.9868 7.13399 12.0387 7.53531 12.319 7.75101C12.319 7.75101 13.8327 8.91591 13.8366 8.91911C14.1604 9.16809 14.6027 9.30762 14.8952 8.92615L16.1881 7.24728C16.4038 6.96694 16.352 6.56562 16.0716 6.34993C15.7913 6.13423 15.3893 6.18671 15.1743 6.46706L14.8959 6.82869C14.4792 4.35679 12.7478 2.24205 10.29 1.38885C7.26898 0.340444 3.93046 1.46502 2.16776 4.12381C1.97254 4.41888 2.05319 4.81571 2.34761 5.01157Z" fill="white"/>
</g>
<defs>
<clipPath id="clip0_1824_9819">
<rect width="16" height="16" fill="white"/>
</clipPath>
</defs>
</svg>
