<?xml version="1.0" encoding="UTF-8"?>
<svg width="24px" height="24px" viewBox="0 0 24 24" version="1.1" xmlns="http://www.w3.org/2000/svg" xmlns:xlink="http://www.w3.org/1999/xlink">
    <!-- Generator: Sketch 51.1 (57501) - http://www.bohemiancoding.com/sketch -->
    <title>Shape</title>
    <desc>Created with Sketch.</desc>
    <defs></defs>
    <g id="方案1" stroke="none" stroke-width="1" fill="none" fill-rule="evenodd">
        <g id="6.1首页-账户-方案二" transform="translate(-200.000000, -234.000000)" fill="#C2C2D5" fill-rule="nonzero">
            <g id="能量" transform="translate(186.000000, 220.000000)">
                <g id="ic_settings_input_composite_24px" transform="translate(14.000000, 14.000000)">
                    <path d="M4.36363636,1.09090909 C4.36363636,0.490909091 3.87272727,0 3.27272727,0 C2.67272727,0 2.18181818,0.490909091 2.18181818,1.09090909 L2.18181818,5.45454545 L0,5.45454545 L0,12 L6.54545455,12 L6.54545455,5.45454545 L4.36363636,5.45454545 L4.36363636,1.09090909 Z M8.72727273,16.3636364 C8.72727273,17.7818182 9.64363636,18.9818182 10.9090909,19.44 L10.9090909,24 L13.0909091,24 L13.0909091,19.44 C14.3563636,18.9927273 15.2727273,17.7927273 15.2727273,16.3636364 L15.2727273,14.1818182 L8.72727273,14.1818182 L8.72727273,16.3636364 Z M0,16.3636364 C0,17.7818182 0.916363636,18.9818182 2.18181818,19.44 L2.18181818,24 L4.36363636,24 L4.36363636,19.44 C5.62909091,18.9818182 6.54545455,17.7818182 6.54545455,16.3636364 L6.54545455,14.1818182 L0,14.1818182 L0,16.3636364 Z M21.8181818,5.45454545 L21.8181818,1.09090909 C21.8181818,0.490909091 21.3272727,0 20.7272727,0 C20.1272727,0 19.6363636,0.490909091 19.6363636,1.09090909 L19.6363636,5.45454545 L17.4545455,5.45454545 L17.4545455,12 L24,12 L24,5.45454545 L21.8181818,5.45454545 Z M13.0909091,1.09090909 C13.0909091,0.490909091 12.6,0 12,0 C11.4,0 10.9090909,0.490909091 10.9090909,1.09090909 L10.9090909,5.45454545 L8.72727273,5.45454545 L8.72727273,12 L15.2727273,12 L15.2727273,5.45454545 L13.0909091,5.45454545 L13.0909091,1.09090909 Z M17.4545455,16.3636364 C17.4545455,17.7818182 18.3709091,18.9818182 19.6363636,19.44 L19.6363636,24 L21.8181818,24 L21.8181818,19.44 C23.0836364,18.9927273 24,17.7927273 24,16.3636364 L24,14.1818182 L17.4545455,14.1818182 L17.4545455,16.3636364 Z" id="Shape"></path>
                </g>
            </g>
        </g>
    </g>
</svg>