<?xml version="1.0" encoding="UTF-8"?>
<svg width="24px" height="24px" viewBox="0 0 24 24" version="1.1" xmlns="http://www.w3.org/2000/svg" xmlns:xlink="http://www.w3.org/1999/xlink">
    <!-- Generator: Sketch 51.1 (57501) - http://www.bohemiancoding.com/sketch -->
    <title>Shape</title>
    <desc>Created with Sketch.</desc>
    <defs></defs>
    <g id="方案1" stroke="none" stroke-width="1" fill="none" fill-rule="evenodd">
        <g id="6.1首页-账户-方案二" transform="translate(-34.000000, -234.000000)" fill="#C2C2D5" fill-rule="nonzero">
            <g id="带宽" transform="translate(20.000000, 220.000000)">
                <g id="ic_settings_input_composite_24px" transform="translate(14.000000, 14.000000)">
                    <path d="M15,8 L9,8 C8.44771525,8 8,8.44771525 8,9 L8,15 C8,15.5522847 8.44771525,16 9,16 L15,16 C15.5522847,16 16,15.5522847 16,15 L16,9 C16,8.44771525 15.5522847,8 15,8 Z M24,10.6666667 L24,8 L21.3333333,8 L21.3333333,5.33333333 C21.3333333,3.86666667 20.1333333,2.66666667 18.6666667,2.66666667 L16,2.66666667 L16,0 L13.3333333,0 L13.3333333,2.66666667 L10.6666667,2.66666667 L10.6666667,0 L8,0 L8,2.66666667 L5.33333333,2.66666667 C3.86666667,2.66666667 2.66666667,3.86666667 2.66666667,5.33333333 L2.66666667,8 L0,8 L0,10.6666667 L2.66666667,10.6666667 L2.66666667,13.3333333 L0,13.3333333 L0,16 L2.66666667,16 L2.66666667,18.6666667 C2.66666667,20.1333333 3.86666667,21.3333333 5.33333333,21.3333333 L8,21.3333333 L8,24 L10.6666667,24 L10.6666667,21.3333333 L13.3333333,21.3333333 L13.3333333,24 L16,24 L16,21.3333333 L18.6666667,21.3333333 C20.1333333,21.3333333 21.3333333,20.1333333 21.3333333,18.6666667 L21.3333333,16 L24,16 L24,13.3333333 L21.3333333,13.3333333 L21.3333333,10.6666667 L24,10.6666667 Z M18.6666667,18.6666667 L5.33333333,18.6666667 L5.33333333,5.33333333 L18.6666667,5.33333333 L18.6666667,18.6666667 Z" id="Shape"></path>
                </g>
            </g>
        </g>
    </g>
</svg>