<svg width="16" height="16" viewBox="0 0 16 16" fill="none" xmlns="http://www.w3.org/2000/svg">
<path d="M15.2973 9.27172L14.6317 8.72378C14.1758 8.34844 14.1766 7.65081 14.6317 7.27622L15.2973 6.72828C15.771 6.33831 15.8921 5.66963 15.5854 5.13822L14.2711 2.86178C13.9643 2.33041 13.3244 2.10103 12.75 2.31622L11.9427 2.61869C11.3897 2.82581 10.7859 2.47647 10.689 1.89491L10.5473 1.04447C10.4464 0.439281 9.92788 0 9.31431 0H6.68572C6.07213 0 5.55356 0.439281 5.45272 1.0445L5.31097 1.89491C5.21388 2.4775 4.60931 2.82547 4.05735 2.61872L3.25 2.31622C2.67553 2.10103 2.03578 2.33044 1.72894 2.86178L0.414657 5.13819C0.107876 5.66953 0.229001 6.33825 0.70272 6.72825L1.36831 7.27619C1.82431 7.65156 1.82341 8.34912 1.36831 8.72375L0.702688 9.27169C0.229001 9.66169 0.107845 10.3304 0.414626 10.8617L1.72894 13.1382C2.03575 13.6695 2.67538 13.8989 3.25 13.6838L4.05731 13.3813C4.61041 13.1741 5.21403 13.5237 5.31094 14.1051L5.45269 14.9554C5.55356 15.5607 6.07213 16 6.68569 16H9.31428C9.92785 16 10.4464 15.5607 10.5473 14.9555L10.689 14.1051C10.786 13.5227 11.3906 13.1745 11.9426 13.3813L12.75 13.6838C13.3246 13.899 13.9643 13.6696 14.2711 13.1382L15.5854 10.8617C15.8921 10.3304 15.771 9.66169 15.2973 9.27172ZM13.1885 12.5132L12.3812 12.2107C11.0906 11.7273 9.68213 12.5429 9.45603 13.8996L9.31431 14.75H6.68572L6.54397 13.8996C6.31744 12.5403 4.90691 11.7282 3.61881 12.2107L2.81147 12.5132L1.49719 10.2368L2.16278 9.68884C3.22681 8.81291 3.22459 7.18528 2.16278 6.31116L1.49719 5.76322L2.8115 3.48678L3.61881 3.78925C4.90944 4.27269 6.31788 3.45706 6.54397 2.10041L6.68569 1.25H9.31428L9.456 2.10041C9.68256 3.45984 11.0932 4.27169 12.3812 3.78925L13.1885 3.48678L14.5031 5.76291C14.5031 5.76291 14.503 5.763 14.5028 5.76319L13.8372 6.31112C12.7732 7.187 12.7753 8.81466 13.8372 9.68881L14.5028 10.2367L13.1885 12.5132ZM8 4.91666C6.29985 4.91666 4.91666 6.29984 4.91666 8C4.91666 9.70016 6.29985 11.0833 8 11.0833C9.70016 11.0833 11.0833 9.70016 11.0833 8C11.0833 6.29984 9.70016 4.91666 8 4.91666ZM8 9.83334C6.9891 9.83334 6.16666 9.01091 6.16666 8C6.16666 6.98909 6.9891 6.16666 8 6.16666C9.01091 6.16666 9.83335 6.98909 9.83335 8C9.83335 9.01091 9.01091 9.83334 8 9.83334Z" fill="white"/>
</svg>
