<?xml version="1.0" encoding="UTF-8"?>
<svg width="18px" height="19px" viewBox="0 0 18 19" version="1.1" xmlns="http://www.w3.org/2000/svg" xmlns:xlink="http://www.w3.org/1999/xlink">
    <!-- Generator: Sketch 51.1 (57501) - http://www.bohemiancoding.com/sketch -->
    <title>添加节点</title>
    <desc>Created with Sketch.</desc>
    <defs></defs>
    <g id="TRONLink" stroke="none" stroke-width="1" fill="none" fill-rule="evenodd">
        <g id="9.1设置--切换节点" transform="translate(-142.000000, -73.000000)" fill-rule="nonzero">
            <g id="添加节点" transform="translate(142.000000, 73.000000)">
                <path d="M0.148889485,11.6390331 C0.051099988,11.1075641 0,10.5597496 0,10 C0,6.06569917 2.52445949,2.72101744 6.04191321,1.49742007 C6.01435001,1.6608372 6,1.82874279 6,2 C6,2.54583583 6.14577351,3.05762443 6.4005133,3.49855857 C3.82165501,4.5306009 2,7.05256529 2,10 C2,10.3398068 2.02421263,10.6739585 2.07100675,11.0008238 C2.04740422,11.0002756 2.0237343,11 2,11 C1.30149445,11 0.658745649,11.238723 0.148889485,11.6390331 Z M3.09636969,16.7933484 C3.74533428,16.5384352 4.28394003,16.0639009 4.62069042,15.4612421 C5.81975028,16.4239926 7.34260827,17 9,17 C10.6573917,17 12.1802497,16.4239926 13.3793096,15.4612421 C13.71606,16.0639009 14.2546657,16.5384352 14.9036303,16.7933484 C13.3233482,18.1678336 11.2588555,19 9,19 C6.74114445,19 4.67665179,18.1678336 3.09636969,16.7933484 Z M11.9580868,1.49742007 C15.4755405,2.72101744 18,6.06569917 18,10 C18,10.5597496 17.9489,11.1075641 17.8511105,11.6390331 C17.3412544,11.238723 16.6985055,11 16,11 C15.9762657,11 15.9525958,11.0002756 15.9289933,11.0008238 C15.9757874,10.6739585 16,10.3398068 16,10 C16,7.05256529 14.178345,4.5306009 11.5994867,3.49855857 C11.8542265,3.05762443 12,2.54583583 12,2 C12,1.82874279 11.98565,1.6608372 11.9580868,1.49742007 Z M9,4 C7.8954305,4 7,3.1045695 7,2 C7,0.8954305 7.8954305,0 9,0 C10.1045695,0 11,0.8954305 11,2 C11,3.1045695 10.1045695,4 9,4 Z M16,16 C14.8954305,16 14,15.1045695 14,14 C14,12.8954305 14.8954305,12 16,12 C17.1045695,12 18,12.8954305 18,14 C18,15.1045695 17.1045695,16 16,16 Z M2,16 C0.8954305,16 0,15.1045695 0,14 C0,12.8954305 0.8954305,12 2,12 C3.1045695,12 4,12.8954305 4,14 C4,15.1045695 3.1045695,16 2,16 Z" id="Combined-Shape" fill="#505160"></path>
                <g id="添加-(1)" transform="translate(6.000000, 7.000000)" fill="#A8A7AF">
                    <polygon id="Shape" points="0 2 6 2 6 4 0 4"></polygon>
                    <polygon id="Shape" points="2 6 2 0 4 0 4 6"></polygon>
                </g>
            </g>
        </g>
    </g>
</svg>