<svg width="25" height="25" viewBox="0 0 25 25" fill="none" xmlns="http://www.w3.org/2000/svg">
<g clip-path="url(#clip0_1826_10484)">
<path d="M18.7001 20.9429H7.30005C6.88755 20.9429 6.55005 20.6054 6.55005 20.1929V10.2554C6.55005 9.84293 6.88755 9.50543 7.30005 9.50543H18.7001C19.1126 9.50543 19.4501 9.84293 19.4501 10.2554V20.1929C19.4501 20.6054 19.1126 20.9429 18.7001 20.9429ZM8.05005 19.4804H17.9876V11.0054H8.05005V19.4804Z" fill="#FFBA00"/>
<path d="M16.6375 11.0054H9.36255C8.95005 11.0054 8.61255 10.6679 8.61255 10.2554V7.66792C8.61255 5.26793 10.5625 3.28043 13 3.28043C15.4375 3.28043 17.3875 5.23043 17.3875 7.66792V10.2554C17.3875 10.6679 17.05 11.0054 16.6375 11.0054ZM10.075 9.54292H15.8875V7.70542C15.8875 6.09292 14.575 4.78043 12.9625 4.78043C11.35 4.78043 10.0375 6.09292 10.0375 7.70542V9.54292H10.075Z" fill="#FFBA00"/>
<path d="M13 17.7929C12.5875 17.7929 12.25 17.4554 12.25 17.0429V15.2429C12.25 14.8304 12.5875 14.493 13 14.493C13.4125 14.493 13.75 14.8304 13.75 15.2429V17.0429C13.75 17.4554 13.4125 17.7929 13 17.7929Z" fill="#FFBA00"/>
</g>
<defs>
<clipPath id="clip0_1826_10484">
<rect width="18" height="18" fill="white" transform="translate(4 3.13043)"/>
</clipPath>
</defs>
</svg>
