<svg width="16" height="16" viewBox="0 0 16 16" fill="none" xmlns="http://www.w3.org/2000/svg">
<path d="M11.3542 15.25C11.3542 15.4489 11.2752 15.6397 11.1345 15.7803C10.9939 15.921 10.8031 16 10.6042 16H3.53381C2.871 15.9993 2.23555 15.7356 1.76687 15.2669C1.29819 14.7983 1.03456 14.1628 1.03381 13.5V2.5C1.03456 1.83719 1.29819 1.20173 1.76687 0.733055C2.23555 0.264376 2.871 0.000744409 3.53381 0L10.6042 0C10.8031 0 10.9939 0.0790176 11.1345 0.21967C11.2752 0.360322 11.3542 0.551088 11.3542 0.75C11.3542 0.948912 11.2752 1.13968 11.1345 1.28033C10.9939 1.42098 10.8031 1.5 10.6042 1.5H3.53381C3.26869 1.50029 3.0145 1.60574 2.82703 1.79321C2.63955 1.98069 2.5341 2.23487 2.53381 2.5V13.5C2.53409 13.7651 2.63954 14.0193 2.82702 14.2068C3.01449 14.3943 3.26868 14.4997 3.53381 14.5H10.6042C10.8031 14.5 10.9939 14.579 11.1345 14.7197C11.2752 14.8603 11.3542 15.0511 11.3542 15.25V15.25ZM14.7465 7.46969L11.1824 3.90556C11.113 3.83464 11.0303 3.77819 10.939 3.73946C10.8477 3.70074 10.7496 3.68052 10.6504 3.67997C10.5512 3.67942 10.4528 3.69855 10.3611 3.73626C10.2693 3.77397 10.186 3.82951 10.1158 3.89966C10.0457 3.9698 9.99018 4.05317 9.95248 4.14492C9.91478 4.23668 9.89566 4.335 9.89622 4.4342C9.89678 4.53339 9.91701 4.63149 9.95575 4.72282C9.99448 4.81414 10.0509 4.89687 10.1219 4.96622L12.4055 7.25H6.50128C6.30237 7.25 6.1116 7.32902 5.97095 7.46967C5.8303 7.61032 5.75128 7.80109 5.75128 8C5.75128 8.19891 5.8303 8.38968 5.97095 8.53033C6.1116 8.67098 6.30237 8.75 6.50128 8.75H12.4055L10.1218 11.0337C10.0518 11.1033 9.99626 11.186 9.95831 11.2771C9.92037 11.3682 9.90077 11.4658 9.90064 11.5645C9.9005 11.6632 9.91984 11.7609 9.95753 11.8521C9.99523 11.9432 10.0505 12.0261 10.1203 12.0958C10.1901 12.1656 10.2729 12.2209 10.3641 12.2586C10.4553 12.2963 10.553 12.3157 10.6517 12.3155C10.7503 12.3154 10.848 12.2958 10.9391 12.2578C11.0301 12.2199 11.1128 12.1644 11.1824 12.0944L14.7465 8.53034C14.8872 8.38969 14.9662 8.19893 14.9662 8.00002C14.9662 7.8011 14.8872 7.61034 14.7465 7.46969V7.46969Z" fill="#FFBA00"/>
</svg>
