<svg width="16" height="16" viewBox="0 0 16 16" fill="none" xmlns="http://www.w3.org/2000/svg">
<path d="M13.0667 15.8334H2.93333C2.56666 15.8334 2.26666 15.5334 2.26666 15.1667V6.33335C2.26666 5.96669 2.56666 5.66669 2.93333 5.66669H13.0667C13.4333 5.66669 13.7333 5.96669 13.7333 6.33335V15.1667C13.7333 15.5334 13.4333 15.8334 13.0667 15.8334ZM3.6 14.5334H12.4333V7.00002H3.6V14.5334Z" fill="white"/>
<path d="M11.2333 7.00003H4.76667C4.40001 7.00003 4.10001 6.70003 4.10001 6.33336V4.03336C4.10001 1.90003 5.83334 0.133362 8.00001 0.133362C10.1667 0.133362 11.9 1.86669 11.9 4.03336V6.33336C11.9 6.70003 11.6 7.00003 11.2333 7.00003ZM5.40001 5.70003H10.5667V4.06669C10.5667 2.63336 9.40001 1.46669 7.96667 1.46669C6.53334 1.46669 5.36667 2.63336 5.36667 4.06669V5.70003H5.40001Z" fill="white"/>
<path d="M8 13.0334C7.63334 13.0334 7.33334 12.7334 7.33334 12.3667V10.7667C7.33334 10.4 7.63334 10.1 8 10.1C8.36666 10.1 8.66666 10.4 8.66666 10.7667V12.3667C8.66666 12.7334 8.36666 13.0334 8 13.0334Z" fill="white"/>
</svg>
