<?xml version="1.0" encoding="UTF-8"?>
<svg width="12px" height="12px" viewBox="0 0 12 12" version="1.1" xmlns="http://www.w3.org/2000/svg" xmlns:xlink="http://www.w3.org/1999/xlink">
    <!-- Generator: Sketch 51.1 (57501) - http://www.bohemiancoding.com/sketch -->
    <title>Group 8</title>
    <desc>Created with Sketch.</desc>
    <defs></defs>
    <g id="方案1" stroke="none" stroke-width="1" fill="none" fill-rule="evenodd">
        <g id="6.2首页-账户-方案二" transform="translate(-232.000000, -159.000000)" fill="#FFFFFF">
            <g id="更多" transform="translate(224.000000, 93.000000)">
                <g id="Group-4" transform="translate(8.000000, 64.000000)">
                    <g id="Group-8" transform="translate(0.000000, 2.000000)">
                        <path d="M0,0 L12,0 L12,12 L0,12 L0,0 Z M1,1 L1,11 L11,11 L11,1 L1,1 Z" id="Rectangle-8"></path>
                        <path d="M4,4 L10,4 L10,5 L4,5 L4,4 Z M4,7 L10,7 L10,8 L4,8 L4,7 Z M2,4 L3,4 L3,5 L2,5 L2,4 Z M2,7 L3,7 L3,8 L2,8 L2,7 Z" id="Combined-Shape"></path>
                    </g>
                </g>
            </g>
        </g>
    </g>
</svg>